<?xml version="1.0" standalone="no"?>
<!DOCTYPE svg PUBLIC "-//W3C//DTD SVG 20010904//EN"
 "http://www.w3.org/TR/2001/REC-SVG-20010904/DTD/svg10.dtd">
<svg version="1.0" xmlns="http://www.w3.org/2000/svg"
 width="736.000000pt" height="552.000000pt" viewBox="0 0 736.000000 552.000000"
 preserveAspectRatio="xMidYMid meet">

<g transform="translate(0.000000,552.000000) scale(0.100000,-0.100000)"
fill="#000000" stroke="none">
<path d="M3084 4306 c-216 -78 -416 -209 -595 -386 -340 -339 -514 -778 -496
-1250 10 -239 46 -404 133 -611 46 -110 136 -265 207 -359 63 -82 202 -224
287 -293 215 -174 481 -295 761 -349 111 -21 139 -21 1052 -25 l937 -4 0 55
c0 30 -7 108 -15 173 -86 663 -569 1223 -1213 1403 -132 37 -271 57 -447 65
-77 3 -167 12 -201 20 -157 36 -295 109 -406 213 -96 91 -150 164 -204 274
-177 367 -69 815 261 1076 22 18 37 32 35 32 -3 -1 -46 -16 -96 -34z"/>
<path d="M4728 4023 c148 -188 211 -532 136 -745 -8 -24 -13 -51 -10 -61 2
-11 2 -16 -1 -13 -4 3 -18 -20 -32 -52 -47 -105 -88 -166 -161 -245 -66 -70
-171 -155 -210 -170 -8 -3 194 -5 450 -4 l465 2 -3 80 c-4 101 -25 232 -59
360 -40 153 -144 392 -165 379 -5 -4 -8 0 -7 7 2 8 -3 24 -10 37 -10 20 -15
21 -29 11 -14 -11 -15 -11 -4 1 14 17 16 34 2 25 -5 -3 -7 0 -5 7 3 8 -9 32
-27 53 -19 22 -46 57 -61 77 -56 76 -172 195 -251 257 -51 40 -54 39 -18 -6z
m496 -649 c3 -8 2 -12 -4 -9 -6 3 -10 10 -10 16 0 14 7 11 14 -7z"/>
<path d="M3787 3902 l-107 -107 113 -113 c127 -127 120 -125 169 -32 20 38 23
59 23 145 0 78 -4 108 -19 135 -19 36 -55 80 -65 80 -4 0 -55 -48 -114 -108z"/>
</g>
</svg>
