<?xml version="1.0" encoding="UTF-8"?>
<svg id="Layer_1" data-name="Layer 1" xmlns="http://www.w3.org/2000/svg" viewBox="0 0 330.01 52.85">
  <defs>
    <style>
      .cls-1 {
        fill: #f15bb5;
      }

      .cls-1, .cls-2 {
        stroke-width: 0px;
      }

      .cls-2 {
        fill: #00bbf9;
      }
    </style>
  </defs>
  <path class="cls-1" d="M15.16,52.85c-4.73,0-8.44-1.72-11.12-5.15-2.69-3.43-4.03-8.15-4.03-14.15,0-3.86.63-7.24,1.89-10.13,1.26-2.89,3.02-5.13,5.29-6.71,2.27-1.58,4.94-2.38,8.01-2.38,3.41,0,6.23,1.18,8.46,3.53V3.71L31.75,0v51.98h-8.1v-2.95c-1.97,2.54-4.8,3.82-8.5,3.82ZM16.42,45.18c1.61,0,3.02-.32,4.23-.97,1.21-.65,2.21-1.6,3.01-2.84v-15.66c-.79-1.15-1.83-2.06-3.11-2.74-1.28-.67-2.66-1.01-4.12-1.01-2.64,0-4.69,1-6.14,2.99-1.45,1.99-2.18,4.86-2.18,8.6,0,2.4.34,4.46,1.01,6.19.67,1.73,1.63,3.07,2.88,4.01,1.25.95,2.72,1.42,4.43,1.42Z"/>
  <path class="cls-2" d="M54.72,52.85c-4.03,0-7.2-1.09-9.5-3.28-2.3-2.18-3.46-5.15-3.46-8.89,0-2.45.59-4.58,1.76-6.39s2.83-3.22,4.97-4.21c2.14-1,4.63-1.49,7.49-1.49,1.68,0,3.28.16,4.81.49,1.52.32,2.89.81,4.09,1.46v-2.38c0-2.35-.6-4.1-1.8-5.24-1.2-1.14-3.01-1.71-5.44-1.71-1.78,0-3.61.32-5.51.97s-3.76,1.58-5.58,2.81l-2.41-6.44c2.02-1.34,4.28-2.38,6.8-3.11,2.52-.73,5.05-1.1,7.6-1.1,4.73,0,8.27,1.15,10.64,3.44,2.36,2.29,3.55,5.73,3.55,10.31v23.9h-7.85v-3.1c-1.3,1.27-2.82,2.25-4.57,2.93-1.75.68-3.61,1.03-5.58,1.03ZM56.38,45.97c1.56,0,3.08-.34,4.55-1.01,1.48-.67,2.79-1.63,3.94-2.88v-5c-1.08-.6-2.3-1.06-3.65-1.39-1.36-.32-2.68-.49-3.98-.49-2.4,0-4.28.49-5.65,1.46-1.37.97-2.05,2.31-2.05,4.01s.6,2.92,1.8,3.87c1.2.95,2.88,1.42,5.04,1.42Z"/>
  <path class="cls-2" d="M84.1,51.98V15.19h8.06v36.79h-8.06Z"/>
  <path class="cls-1" d="M104.4,51.98V15.19h8.06v3.6c1.15-1.51,2.54-2.63,4.16-3.37,1.62-.73,3.47-1.1,5.56-1.1,4.25,0,7.48,1.3,9.68,3.89,2.21,2.59,3.31,6.4,3.31,11.41v22.36h-8.1v-20.88c0-3.07-.58-5.36-1.75-6.88-1.16-1.51-2.92-2.27-5.27-2.27-2.54,0-4.45.74-5.71,2.23-1.26,1.49-1.89,3.74-1.89,6.77v21.02h-8.06Z"/>
  <path class="cls-1" d="M158,52.85c-4.03,0-7.2-1.09-9.5-3.28-2.3-2.18-3.46-5.15-3.46-8.89,0-2.45.59-4.58,1.76-6.39s2.83-3.22,4.97-4.21c2.14-1,4.63-1.49,7.49-1.49,1.68,0,3.28.16,4.81.49,1.52.32,2.89.81,4.09,1.46v-2.38c0-2.35-.6-4.1-1.8-5.24-1.2-1.14-3.01-1.71-5.44-1.71-1.78,0-3.61.32-5.51.97s-3.76,1.58-5.58,2.81l-2.41-6.44c2.02-1.34,4.28-2.38,6.8-3.11,2.52-.73,5.05-1.1,7.6-1.1,4.73,0,8.27,1.15,10.64,3.44,2.36,2.29,3.55,5.73,3.55,10.31v23.9h-7.85v-3.1c-1.3,1.27-2.82,2.25-4.57,2.93-1.75.68-3.61,1.03-5.58,1.03ZM159.66,45.97c1.56,0,3.08-.34,4.55-1.01,1.48-.67,2.79-1.63,3.94-2.88v-5c-1.08-.6-2.3-1.06-3.65-1.39-1.36-.32-2.68-.49-3.98-.49-2.4,0-4.28.49-5.65,1.46-1.37.97-2.05,2.31-2.05,4.01s.6,2.92,1.8,3.87c1.2.95,2.88,1.42,5.04,1.42Z"/>
  <path class="cls-1" d="M187.88,51.98V15.19h8.06v3.42c1.15-1.44,2.5-2.51,4.03-3.22,1.54-.71,3.26-1.06,5.18-1.06,2.16,0,4.06.45,5.69,1.35,1.63.9,2.89,2.21,3.78,3.94,1.18-1.7,2.72-3.01,4.63-3.92,1.91-.91,4.04-1.37,6.39-1.37,4.32,0,7.64,1.22,9.97,3.65,2.33,2.44,3.49,5.93,3.49,10.49v23.51h-8.1v-20.84c0-3.07-.55-5.37-1.64-6.89-1.09-1.52-2.73-2.29-4.91-2.29-1.49,0-2.75.35-3.8,1.04-1.04.7-1.83,1.73-2.36,3.1-.53,1.37-.79,3.04-.79,5v20.88h-8.1v-20.84c0-3.12-.53-5.43-1.6-6.93-1.07-1.5-2.71-2.25-4.91-2.25s-4.01.76-5.18,2.27c-1.18,1.51-1.76,3.76-1.76,6.73v21.02h-8.06Z"/>
  <path class="cls-1" d="M251.02,51.98V15.19h8.06v36.79h-8.06Z"/>
  <path class="cls-1" d="M281.84,52.85c-2.79,0-4.88-.79-6.3-2.38s-2.12-3.9-2.12-6.95v-21.24h-5.58v-7.09h5.58V3.85l8.06-3.85v15.19h8.57v7.09h-8.57v19.48c0,1.32.26,2.3.77,2.93.52.64,1.31.95,2.39.95,1.75,0,3.66-.58,5.72-1.73l-.9,7.27c-1.13.55-2.32.97-3.56,1.24-1.25.28-2.6.41-4.07.41Z"/>
  <path class="cls-1" d="M314.24,52.85c-3.48,0-6.48-.8-9-2.41-2.52-1.61-4.45-3.86-5.8-6.75s-2.02-6.27-2.02-10.13.7-7.45,2.09-10.31c1.39-2.87,3.35-5.07,5.87-6.61,2.52-1.54,5.47-2.3,8.86-2.3,2.9,0,5.55.62,7.94,1.87,2.39,1.25,4.29,3.16,5.71,5.74,1.42,2.58,2.12,5.86,2.12,9.85,0,.62-.01,1.36-.04,2.21-.02.85-.1,1.71-.22,2.57h-24.3c.14,1.87.59,3.5,1.35,4.9.76,1.39,1.77,2.48,3.04,3.26,1.27.78,2.77,1.17,4.5,1.17s3.17-.28,4.46-.85c1.3-.56,2.53-1.47,3.71-2.72l4.68,4.93c-1.51,1.66-3.35,3-5.53,4.03-2.17,1.03-4.65,1.55-7.43,1.55ZM305.49,30.06h16.6c-.07-1.75-.43-3.29-1.06-4.61-.64-1.32-1.53-2.35-2.68-3.08-1.15-.73-2.56-1.1-4.21-1.1-2.3,0-4.27.72-5.89,2.16-1.62,1.44-2.54,3.65-2.75,6.62Z"/>
</svg>